<svg width="152" height="32" viewBox="0 0 152 32" fill="none" xmlns="http://www.w3.org/2000/svg">
<rect width="152" height="32" fill="#0567FA"/>
<path d="M16.5305 23.9465V24.2465H16.8305H19.8308H20.1308V23.9465V10.7655H26.6826H26.9826V10.4655V8.06421V7.76421H26.6826H10H9.7V8.06421V10.4655V10.7655H10H16.5305V23.9465ZM42.4377 23.9465V24.2465H42.7377H45.7593H46.0593V23.9465V23.9465V23.9464V23.9463V23.9462V23.9461V23.946V23.9458V23.9457V23.9455V23.9452V23.945V23.9447V23.9445V23.9442V23.9438V23.9435V23.9431V23.9427V23.9423V23.9419V23.9415V23.941V23.9405V23.94V23.9395V23.939V23.9384V23.9378V23.9372V23.9366V23.936V23.9353V23.9346V23.9339V23.9332V23.9325V23.9317V23.931V23.9302V23.9294V23.9286V23.9277V23.9268V23.926V23.9251V23.9241V23.9232V23.9222V23.9213V23.9203V23.9193V23.9182V23.9172V23.9161V23.915V23.9139V23.9128V23.9117V23.9105V23.9094V23.9082V23.907V23.9057V23.9045V23.9032V23.902V23.9007V23.8994V23.898V23.8967V23.8953V23.8939V23.8926V23.8911V23.8897V23.8883V23.8868V23.8853V23.8838V23.8823V23.8808V23.8793V23.8777V23.8761V23.8745V23.8729V23.8713V23.8697V23.868V23.8663V23.8647V23.863V23.8612V23.8595V23.8578V23.856V23.8542V23.8524V23.8506V23.8488V23.847V23.8451V23.8432V23.8414V23.8395V23.8375V23.8356V23.8337V23.8317V23.8297V23.8278V23.8258V23.8237V23.8217V23.8197V23.8176V23.8155V23.8135V23.8114V23.8092V23.8071V23.805V23.8028V23.8006V23.7985V23.7963V23.7941V23.7918V23.7896V23.7874V23.7851V23.7828V23.7805V23.7782V23.7759V23.7736V23.7712V23.7689V23.7665V23.7641V23.7618V23.7594V23.7569V23.7545V23.7521V23.7496V23.7471V23.7447V23.7422V23.7397V23.7372V23.7346V23.7321V23.7295V23.727V23.7244V23.7218V23.7192V23.7166V23.714V23.7114V23.7087V23.7061V23.7034V23.7007V23.698V23.6953V23.6926V23.6899V23.6872V23.6844V23.6817V23.6789V23.6762V23.6734V23.6706V23.6678V23.665V23.6621V23.6593V23.6565V23.6536V23.6507V23.6479V23.645V23.6421V23.6392V23.6362V23.6333V23.6304V23.6274V23.6245V23.6215V23.6185V23.6156V23.6126V23.6096V23.6066V23.6035V23.6005V23.5975V23.5944V23.5914V23.5883V23.5852V23.5822V23.5791V23.576V23.5729V23.5697V23.5666V23.5635V23.5604V23.5572V23.554V23.5509V23.5477V23.5445V23.5413V23.5381V23.5349V23.5317V23.5285V23.5253V23.522V23.5188V23.5156V23.5123V23.509V23.5058V23.5025V23.4992V23.4959V23.4926V23.4893V23.486V23.4827V23.4793V23.476V23.4727V23.4693V23.466V23.4626V23.4592V23.4559V23.4525V23.4491V23.4457V23.4423V23.4389V23.4355V23.4321V23.4287V23.4253V23.4218V23.4184V23.4149V23.4115V23.408V23.4046V23.4011V23.3976V23.3942V23.3907V23.3872V23.3837V23.3802V23.3767V23.3732V23.3697V23.3662V23.3627V23.3591V23.3556V23.3521V23.3486V23.345V23.3415V23.3379V23.3344V23.3308V23.3272V23.3237V23.3201V23.3165V23.313V23.3094V23.3058V23.3022V23.2986V23.295V23.2914V23.2878V23.2842V23.2806V23.277V23.2734V23.2697V23.2661V23.2625V23.2589V23.2552V23.2516V23.248V23.2443V23.2407V23.2371V23.2334V23.2298V23.2261V23.2225V23.2188V23.2151V23.2115V23.2078V23.2042V23.2005V23.1968V23.1932V23.1895V23.1858V23.1821V23.1785V23.1748V23.1711V23.1674V23.1638V23.1601V23.1564V23.1527V23.149V23.1453V23.1416V23.138V23.1343V23.1306V23.1269V23.1232V23.1195V23.1158V23.1121V23.1084V23.1047V23.101V23.0973V23.0936V23.0899V23.0863V23.0826V23.0789V23.0752V23.0715V23.0678V23.0641V23.0604V23.0567V23.053V23.0493V23.0456V23.0419V23.0383V23.0346V23.0309V23.0272V23.0235V23.0198V23.0161V23.0125V23.0088V23.0051V23.0014V22.9977V22.9941V22.9904V22.9867V22.983V22.9794V22.9757V22.972V22.9684V22.9647V22.9611V22.9574V22.9538V22.9501V22.9464V22.9428V22.9392V22.9355V22.9319V22.9282V22.9246V22.921V22.9173V22.9137V22.9101V22.9065V22.9028V22.8992V22.8956V22.892V22.8884V22.8848V22.8812V22.8776V22.874V22.8704V22.8668V22.8633V22.8597V22.8561V22.8525V22.849V22.8454V22.8419V22.8383V22.8348V22.8312V22.8277V22.8241V22.8206V22.8171V22.8135V22.81V22.8065V22.803V22.7995V22.796V22.7925V22.789V22.7855V22.7821V22.7786V22.7751V22.7716V22.7682V22.7647V22.7613V22.7578V22.7544V22.751V22.7476V22.7441V22.7407V22.7373V22.7339V22.7305V22.7271V22.7237V22.7204V22.717V22.7136V22.7103V22.7069V22.7036V22.7002V22.6969V22.6936V22.6903V22.6869V22.6836V22.6803V22.677V22.6738V22.6705V22.6672V22.664V22.6607V22.6574V22.6542V22.651V22.6477V22.6445V22.6413V22.6381V22.6349V22.6317V22.6286V22.6254V22.6222V22.6191V22.6159V22.6128V22.6096V22.6065V22.6034V22.6003V22.5972V22.5941V22.591V22.588V22.5849V22.5818V22.5788V22.5758V22.5727V22.5697V22.5667V22.5637V22.5607V22.5577V22.5548V22.5518V22.5488V22.5459V22.543V22.54V22.5371V22.5342V22.5313V22.5284V20.3352C46.0593 19.3399 45.77 18.4717 45.2234 17.7991C44.8592 17.3508 44.3878 16.9982 43.829 16.7533C44.3894 16.4971 44.8625 16.1324 45.2276 15.6623C45.7733 14.9595 46.0593 14.045 46.0593 12.9613C46.0593 11.2866 45.4694 9.96734 44.3088 9.07649C43.1613 8.19567 41.4954 7.76421 39.3969 7.76421H29.5236H29.2236V8.06421V23.9465V24.2465H29.5236H32.5239H32.8239V23.9465V18.2906H39.3118C40.3268 18.2906 41.1136 18.4369 41.6393 18.767C42.1381 19.0803 42.4377 19.5817 42.4377 20.4108V22.5284V22.5313V22.5342V22.5371V22.54V22.543V22.5459V22.5488V22.5518V22.5548V22.5577V22.5607V22.5637V22.5667V22.5697V22.5727V22.5758V22.5788V22.5818V22.5849V22.588V22.591V22.5941V22.5972V22.6003V22.6034V22.6065V22.6096V22.6128V22.6159V22.6191V22.6222V22.6254V22.6286V22.6317V22.6349V22.6381V22.6413V22.6445V22.6477V22.651V22.6542V22.6574V22.6607V22.664V22.6672V22.6705V22.6738V22.677V22.6803V22.6836V22.6869V22.6903V22.6936V22.6969V22.7002V22.7036V22.7069V22.7103V22.7136V22.717V22.7204V22.7237V22.7271V22.7305V22.7339V22.7373V22.7407V22.7441V22.7476V22.751V22.7544V22.7578V22.7613V22.7647V22.7682V22.7716V22.7751V22.7786V22.7821V22.7855V22.789V22.7925V22.796V22.7995V22.803V22.8065V22.81V22.8135V22.8171V22.8206V22.8241V22.8277V22.8312V22.8348V22.8383V22.8419V22.8454V22.849V22.8525V22.8561V22.8597V22.8633V22.8668V22.8704V22.874V22.8776V22.8812V22.8848V22.8884V22.892V22.8956V22.8992V22.9028V22.9065V22.9101V22.9137V22.9173V22.921V22.9246V22.9282V22.9319V22.9355V22.9392V22.9428V22.9464V22.9501V22.9538V22.9574V22.9611V22.9647V22.9684V22.972V22.9757V22.9794V22.983V22.9867V22.9904V22.9941V22.9977V23.0014V23.0051V23.0088V23.0125V23.0161V23.0198V23.0235V23.0272V23.0309V23.0346V23.0383V23.0419V23.0456V23.0493V23.053V23.0567V23.0604V23.0641V23.0678V23.0715V23.0752V23.0789V23.0826V23.0863V23.0899V23.0936V23.0973V23.101V23.1047V23.1084V23.1121V23.1158V23.1195V23.1232V23.1269V23.1306V23.1343V23.138V23.1416V23.1453V23.149V23.1527V23.1564V23.1601V23.1638V23.1674V23.1711V23.1748V23.1785V23.1821V23.1858V23.1895V23.1932V23.1968V23.2005V23.2042V23.2078V23.2115V23.2151V23.2188V23.2225V23.2261V23.2298V23.2334V23.2371V23.2407V23.2443V23.248V23.2516V23.2552V23.2589V23.2625V23.2661V23.2697V23.2734V23.277V23.2806V23.2842V23.2878V23.2914V23.295V23.2986V23.3022V23.3058V23.3094V23.313V23.3165V23.3201V23.3237V23.3272V23.3308V23.3344V23.3379V23.3415V23.345V23.3486V23.3521V23.3556V23.3591V23.3627V23.3662V23.3697V23.3732V23.3767V23.3802V23.3837V23.3872V23.3907V23.3942V23.3976V23.4011V23.4046V23.408V23.4115V23.4149V23.4184V23.4218V23.4253V23.4287V23.4321V23.4355V23.4389V23.4423V23.4457V23.4491V23.4525V23.4559V23.4592V23.4626V23.466V23.4693V23.4727V23.476V23.4793V23.4827V23.486V23.4893V23.4926V23.4959V23.4992V23.5025V23.5058V23.509V23.5123V23.5156V23.5188V23.522V23.5253V23.5285V23.5317V23.5349V23.5381V23.5413V23.5445V23.5477V23.5509V23.554V23.5572V23.5604V23.5635V23.5666V23.5697V23.5729V23.576V23.5791V23.5822V23.5852V23.5883V23.5914V23.5944V23.5975V23.6005V23.6035V23.6066V23.6096V23.6126V23.6156V23.6185V23.6215V23.6245V23.6274V23.6304V23.6333V23.6362V23.6392V23.6421V23.645V23.6479V23.6507V23.6536V23.6565V23.6593V23.6621V23.665V23.6678V23.6706V23.6734V23.6762V23.6789V23.6817V23.6844V23.6872V23.6899V23.6926V23.6953V23.698V23.7007V23.7034V23.7061V23.7087V23.7114V23.714V23.7166V23.7192V23.7218V23.7244V23.727V23.7295V23.7321V23.7346V23.7372V23.7397V23.7422V23.7447V23.7471V23.7496V23.7521V23.7545V23.7569V23.7594V23.7618V23.7641V23.7665V23.7689V23.7712V23.7736V23.7759V23.7782V23.7805V23.7828V23.7851V23.7874V23.7896V23.7918V23.7941V23.7963V23.7985V23.8006V23.8028V23.805V23.8071V23.8092V23.8114V23.8135V23.8155V23.8176V23.8197V23.8217V23.8237V23.8258V23.8278V23.8297V23.8317V23.8337V23.8356V23.8375V23.8395V23.8414V23.8432V23.8451V23.847V23.8488V23.8506V23.8524V23.8542V23.856V23.8578V23.8595V23.8612V23.863V23.8647V23.8663V23.868V23.8697V23.8713V23.8729V23.8745V23.8761V23.8777V23.8793V23.8808V23.8823V23.8838V23.8853V23.8868V23.8883V23.8897V23.8911V23.8926V23.8939V23.8953V23.8967V23.898V23.8994V23.9007V23.902V23.9032V23.9045V23.9057V23.907V23.9082V23.9094V23.9105V23.9117V23.9128V23.9139V23.915V23.9161V23.9172V23.9182V23.9193V23.9203V23.9213V23.9222V23.9232V23.9241V23.9251V23.926V23.9268V23.9277V23.9286V23.9294V23.9302V23.931V23.9317V23.9325V23.9332V23.9339V23.9346V23.9353V23.936V23.9366V23.9372V23.9378V23.9384V23.939V23.9395V23.94V23.9405V23.941V23.9415V23.9419V23.9423V23.9427V23.9431V23.9435V23.9438V23.9442V23.9445V23.9447V23.945V23.9452V23.9455V23.9457V23.9458V23.946V23.9461V23.9462V23.9463V23.9464V23.9465V23.9465ZM49.4954 23.9464V24.2457L49.7946 24.2464L71.8585 24.3L72.1592 24.3007V24V21.5988V21.2996L71.8601 21.2988L53.0957 21.246V17.4974L71.1349 17.55L71.4357 17.5509V17.25V14.8677V14.5686L71.1366 14.5677L53.0957 14.515V10.7663L71.8584 10.819L72.1592 10.8198V10.519V8.11771V7.81844L71.8599 7.81771L49.7961 7.76416L49.4954 7.76343V8.06416V23.9464ZM75.5708 23.8823V24.1823H75.8708H78.8711H79.1711V23.8823V12.4214L89.1765 24.0777L89.2663 24.1823H89.4042H92.4045H92.7045V23.8823V8.00001V7.70001H92.4045H89.4042H89.1042V8.00001V19.4609L79.0988 7.80461L79.009 7.70001H78.8711H75.8708H75.5708V8.00001V23.8823ZM96.1161 23.9465V24.2477L96.4173 24.2465L112.463 24.1823C112.463 24.1823 112.463 24.1823 112.463 24.1823C115.124 24.1822 117.316 23.4323 118.846 22.0084C120.378 20.5818 121.21 18.5108 121.21 15.9411C121.21 13.372 120.384 11.301 118.854 9.87405C117.327 8.44973 115.134 7.7 112.463 7.7L112.461 7.7L96.4149 7.76422L96.1161 7.76542V8.06422V16.0054V23.9465ZM112.484 21.181L112.482 21.181L99.7164 21.2438V10.764L105.952 10.7334L112.48 10.7013C115.319 10.7835 117.525 12.9524 117.525 15.9411C117.525 18.9394 115.311 21.181 112.484 21.181ZM130.975 23.8912V24.1912H131.275H134.255H134.555V23.8912V18.4324L142.24 8.18895L142.6 7.7089H142H138.489H138.336L138.246 7.83265L132.765 15.3827L127.284 7.83266L127.194 7.7089H127.041H123.509H122.908L123.269 8.18926L127.152 13.351L130.975 18.4326V23.8912ZM39.3118 15.2894H32.8239V10.7655H39.1416C40.2866 10.7655 41.0955 10.9268 41.6127 11.2668C42.1019 11.5885 42.3739 12.1005 42.3739 12.9423C42.3739 13.9751 42.0679 14.5238 41.5932 14.8382C41.0879 15.1729 40.3273 15.2894 39.3118 15.2894Z" fill="#1A1A1A" stroke="#1A1A1A" stroke-width="0.6"/>
</svg>
